<svg xmlns="http://www.w3.org/2000/svg" viewBox="0 0 110.07 112.93"><path fill="#FFF" d="M60.07 108.54H37.54V38.72h21.43c.13 2.05.24 3.86.38 6.08.67-.31 1.3-.42 1.66-.78 8.49-8.66 18.8-9.33 29.61-6.22 8.86 2.55 12.96 9.55 14.34 18.14.81 5.07 1.09 10.27 1.15 15.42.16 12.16.05 24.33.05 36.96H83.3c-.08-1.77-.22-3.54-.23-5.32-.04-11.34.14-22.69-.14-34.02-.23-9.46-4.68-13.83-12.81-12.19-2.96.6-6.36 3.1-7.87 5.71-1.71 2.95-2.02 6.99-2.09 10.57-.24 11.63-.09 23.27-.09 35.47zM24.34 108.44H1.92V38.67h22.42v69.77zM26.43 16.21c-.05 7.21-6.36 13.35-13.5 13.15C5.9 29.15 0 23.12 0 16.15 0 8.82 5.87 3.25 13.49 3.33c7.3.07 12.99 5.73 12.94 12.88z"/></svg>