<?xml version="1.0" encoding="utf-8"?>
<!-- Generator: Adobe Illustrator 24.1.1, SVG Export Plug-In . SVG Version: 6.00 Build 0)  -->
<svg version="1.1" id="Layer_1" xmlns="http://www.w3.org/2000/svg" xmlns:xlink="http://www.w3.org/1999/xlink" x="0px" y="0px"
	 viewBox="0 0 25 20" enable-background="new 0 0 25 20" xml:space="preserve">
<path fill="#FFFFFF" d="M23.43,5H1.57C1.26,5,1,4.74,1,4.43V1.57C1,1.26,1.26,1,1.57,1h21.86C23.74,1,24,1.26,24,1.57v2.86
	C24,4.74,23.74,5,23.43,5z"/>
<g>
	<path fill="#FFFFFF" d="M23.43,12H1.57C1.26,12,1,11.74,1,11.43V8.57C1,8.26,1.26,8,1.57,8h21.86C23.74,8,24,8.26,24,8.57v2.86
		C24,11.74,23.74,12,23.43,12z"/>
</g>
<g>
	<path fill="#FFFFFF" d="M23.43,19H1.57C1.26,19,1,18.74,1,18.43v-2.86C1,15.26,1.26,15,1.57,15h21.86c0.31,0,0.57,0.26,0.57,0.57
		v2.86C24,18.74,23.74,19,23.43,19z"/>
</g>
</svg>
