<?xml version="1.0" encoding="utf-8"?>
<!-- Generator: Adobe Illustrator 24.1.1, SVG Export Plug-In . SVG Version: 6.00 Build 0)  -->
<svg version="1.1" id="Layer_1" xmlns="http://www.w3.org/2000/svg" xmlns:xlink="http://www.w3.org/1999/xlink" x="0px" y="0px"
	 viewBox="0 0 25 20" enable-background="new 0 0 25 20" xml:space="preserve">
<path fill="#FFFFFF" d="M21.64,3.68L6.18,19.14c-0.22,0.22-0.58,0.22-0.8,0l-2.02-2.02c-0.22-0.22-0.22-0.58,0-0.8L18.82,0.86
	c0.22-0.22,0.58-0.22,0.8,0l2.02,2.02C21.87,3.1,21.87,3.46,21.64,3.68z"/>
<g>
	<path fill="#FFFFFF" d="M18.82,19.14L3.36,3.68c-0.22-0.22-0.22-0.58,0-0.8l2.02-2.02c0.22-0.22,0.58-0.22,0.8,0l15.46,15.46
		c0.22,0.22,0.22,0.58,0,0.8l-2.02,2.02C19.4,19.37,19.04,19.37,18.82,19.14z"/>
</g>
</svg>
