<svg xmlns="http://www.w3.org/2000/svg" viewBox="0 0 130.7 110.29"><path fill="#FFF" d="M4.68 94.27c11.88-.39 23.15-2.23 33.67-10.16-10.49-2.12-17.74-7.3-21.5-17.54 2.75-.21 4.92-.38 8.14-.63C14.74 60.37 8.24 53.32 8.36 41.39c3.01.97 5.49 1.77 9.54 3.07-9.86-10.43-12.62-20.81-5.93-33.54 13.47 15.66 29.58 24.53 49.95 26.03 0-2.18-.04-3.96.01-5.75C62.46 12 83.13.09 99.27 10.4c6.16 3.93 10.84 3.38 16.44.55 1.43-.72 2.94-1.27 4.41-1.89l1.11.96c-2.6 3.84-5.19 7.67-7.82 11.56 3.11-.88 6.47-1.82 11.17-3.15-1.92 2.53-2.72 4.33-4.1 5.28-7.09 4.92-8.24 12.02-9.18 20.05-3.49 29.95-25.07 53.48-54.48 59.8-18.45 3.96-36 1.06-52.14-9.29z"/></svg>